<svg xmlns="http://www.w3.org/2000/svg" viewBox="0 0 454.506 454.506" style="enable-background:new 0 0 454.506 454.506" xml:space="preserve"><circle style="fill:#ccc" cx="116.407" cy="357.368" r="11"/><circle style="fill:#ccc" cx="340.16" cy="329.117" r="14.919"/><path style="fill:#ccc" d="M246.9 319.386v39.545c5.75 1.63 9.97 6.92 9.97 13.2 0 .06-.01.12-.01.18.9-.11 1.81-.18 2.73-.18 10.73 0 19.72 7.35 22.27 17.28a32.09 32.09 0 0 1 18.64 2.82c7.54-6.9 17.58-11.11 28.6-11.11 6.6 0 12.84 1.51 18.41 4.2 3.2-22.64 22.64-40.06 46.16-40.06 25.75 0 46.63 20.88 46.63 46.63 0 13.02-5.34 24.79-13.95 33.25 2.85 4.3 4.85 9.2 5.81 14.47H13.14c.96-5.27 2.96-10.17 5.81-14.47C10.34 416.68 5 404.91 5 391.89c0-25.75 20.88-46.63 46.63-46.63 23.52 0 42.96 17.42 46.16 40.06 5.57-2.69 11.81-4.2 18.41-4.2 11.02 0 21.06 4.21 28.6 11.11a32.09 32.09 0 0 1 18.64-2.82c2.55-9.93 11.54-17.28 22.27-17.28.92 0 1.83.07 2.73.18 0-.06-.01-.12-.01-.18 0-6.09 3.97-11.26 9.47-13.05v-39.695h49v.001z"/><path style="fill:#e6e6e6" d="M300.643 251.298v68.09h-33v-92.09z"/><path style="fill:#ccc" d="M177.653 227.298v92.09h-33v-68.09z"/><path style="fill:#e6e6e6" d="M267.643 120.988v198.4h-89.99v-198.4c0-5.01.25-9.99.75-14.93h88.49c.5 4.94.75 9.92.75 14.93z"/><path style="fill:#f24125" d="M266.893 106.058h-88.49c3.51-34.5 19.09-66.84 44.25-91.16a147.39 147.39 0 0 1 33.28 48.47c5.73 13.53 9.45 27.91 10.96 42.69z"/><path style="opacity:.25;enable-background:new" d="M222.653 14.898s-12.77 35.23-12.77 91.16v211.93l-32.23 1.4v-198.4c0-5.01.25-9.99.75-14.93 3.51-34.5 19.09-66.84 44.25-91.16z"/><path style="fill:#333" d="M272.643 227.297h-10v-106.31c0-4.823-.244-9.676-.725-14.427a142.972 142.972 0 0 0-10.589-41.244c-6.861-16.188-16.497-30.751-28.674-43.349-22.146 22.942-36.042 52.794-39.277 84.595-.48 4.748-.724 9.602-.724 14.424v106.31h-10v-106.31c0-5.158.261-10.35.775-15.434 3.64-35.781 19.888-69.253 45.75-94.252a5 5 0 0 1 6.95 0c14.803 14.309 26.379 31.17 34.408 50.114a152.936 152.936 0 0 1 11.331 44.133c.515 5.088.776 10.281.776 15.438l-.001 106.312zM177.653 314.388h89.99v10h-89.99z"/><path style="fill:#333" d="M177.653 324.388h-33a5 5 0 0 1-5-5v-68.09c0-1.6.766-3.103 2.059-4.043l33-24a5 5 0 0 1 7.941 4.044v92.09a5 5 0 0 1-5 4.999zm-28-10h23v-77.271l-23 16.727v60.544zM300.643 324.388h-33a5 5 0 0 1-5-5v-23.4a5 5 0 0 1 10 0v18.4h23v-60.544l-23-16.727v44.204a5 5 0 0 1-10 0v-54.023a5 5 0 0 1 7.941-4.044l33 24a5 5 0 0 1 2.059 4.043v68.09a5 5 0 0 1-5 5.001z"/><path style="fill:#fff" d="M247.821 90.729a5.002 5.002 0 0 1-4.815-3.665 129.145 129.145 0 0 0-10.062-25.416 5 5 0 1 1 8.855-4.645 139.201 139.201 0 0 1 10.842 27.388 5 5 0 0 1-4.82 6.338zM229.059 50.556a4.995 4.995 0 0 1-4.12-2.161 128.538 128.538 0 0 0-6.162-8.206 5 5 0 0 1 7.747-6.323 137.604 137.604 0 0 1 6.646 8.849 5 5 0 0 1-4.111 7.841z"/><path style="fill:#333" d="M116.407 373.368c-8.822 0-16-7.178-16-16s7.178-16 16-16 16 7.178 16 16-7.178 16-16 16zm0-22c-3.309 0-6 2.691-6 6s2.691 6 6 6 6-2.691 6-6-2.691-6-6-6zM340.16 349.036c-10.983 0-19.919-8.936-19.919-19.919s8.936-19.919 19.919-19.919 19.919 8.936 19.919 19.919-8.936 19.919-19.919 19.919zm0-29.838c-5.47 0-9.919 4.45-9.919 9.919 0 5.47 4.45 9.919 9.919 9.919s9.919-4.45 9.919-9.919c0-5.47-4.45-9.919-9.919-9.919zM93.871 409.972a5 5 0 0 1-4.438-7.297c3.005-5.814 3.443-14.394 3.359-17.209a5 5 0 0 1 9.995-.301c.016.519.328 12.818-4.47 22.102a5.002 5.002 0 0 1-4.446 2.705zM164.339 407.902a5.003 5.003 0 0 1-4.711-3.325c-2.895-8.137-1.249-15.528-1.052-16.344a5 5 0 0 1 9.727 2.323c-.036.16-1.15 5.336.748 10.668a5 5 0 0 1-4.712 6.678zM135.178 406.833a5 5 0 0 1-4.49-7.193c3.866-7.927 11.163-11.547 11.982-11.934a5.001 5.001 0 0 1 4.295 9.031c-.148.074-4.955 2.502-7.289 7.287a5.001 5.001 0 0 1-4.498 2.809z"/><path style="fill:#333" d="M144.801 397.23a4.994 4.994 0 0 1-3.376-1.312 37.28 37.28 0 0 0-25.225-9.798c-5.686 0-11.149 1.246-16.236 3.702a5 5 0 0 1-7.125-3.802c-1.912-13.529-10.374-25.266-22.636-31.395a5 5 0 1 1 4.471-8.945 51.666 51.666 0 0 1 26.806 32.77 47.077 47.077 0 0 1 14.72-2.33 47.233 47.233 0 0 1 29.488 10.297 36.756 36.756 0 0 1 14.299-2.336 27.99 27.99 0 0 1 24.103-16.905 18.665 18.665 0 0 1 12.262-12.851 5 5 0 0 1 3.095 9.509 8.7 8.7 0 0 0-6.017 8.159 5.002 5.002 0 0 1-5.597 5.281 17.443 17.443 0 0 0-2.125-.144 17.99 17.99 0 0 0-17.427 13.524 4.993 4.993 0 0 1-5.586 3.701 26.696 26.696 0 0 0-3.947-.294c-4.127 0-8.092.9-11.783 2.676a4.994 4.994 0 0 1-2.164.493zM57.216 444.61H13.14a4.998 4.998 0 0 1-4.919-5.896 43.577 43.577 0 0 1 4.5-12.893C4.49 416.42 0 404.515 0 391.891c0-28.469 23.161-51.63 51.63-51.63a5 5 0 0 1 0 10c-22.955 0-41.63 18.675-41.63 41.63 0 11.25 4.423 21.792 12.454 29.684a5 5 0 0 1 .663 6.329 33.373 33.373 0 0 0-3.431 6.707h37.53a5 5 0 0 1 0 9.999zM86.55 444.61h-9.334a5 5 0 0 1 0-10h9.334a5 5 0 0 1 0 10zM339.216 444.61H105.883a5 5 0 0 1 0-10h233.333a5 5 0 0 1 0 10zM432.16 444.61h-76.944a5 5 0 0 1 0-10h70.397a33.346 33.346 0 0 0-3.431-6.707 5 5 0 0 1 .663-6.329 41.68 41.68 0 0 0 10.809-18.058 5 5 0 0 1 9.603 2.789 51.649 51.649 0 0 1-10.681 19.512 43.594 43.594 0 0 1 4.501 12.897 5 5 0 0 1-4.917 5.896zM440.3 396.891a5 5 0 0 1-5-5c0-2.828-.285-5.652-.846-8.394a5 5 0 1 1 9.797-2.005 51.966 51.966 0 0 1 1.049 10.4 5 5 0 0 1-5 4.999zM300.499 397.23a4.992 4.992 0 0 1-2.166-.494 26.976 26.976 0 0 0-11.783-2.676c-1.31 0-2.64.099-3.952.295a5.002 5.002 0 0 1-5.581-3.702 17.99 17.99 0 0 0-17.427-13.524c-.639 0-1.334.047-2.124.144a5.004 5.004 0 0 1-5.606-4.964c0-.081.004-.193.009-.299-.052-3.834-2.642-7.224-6.333-8.271a5 5 0 0 1 2.727-9.621c6.375 1.807 11.22 6.866 12.933 13.056 10.661.607 19.968 7.227 24.116 16.905a36.821 36.821 0 0 1 14.299 2.336 47.239 47.239 0 0 1 29.488-10.297c5.068 0 9.999.782 14.723 2.331 5.989-22.158 26.409-38.191 49.847-38.191 18.188 0 34.693 9.292 44.151 24.855a5 5 0 0 1-8.546 5.194c-7.629-12.554-20.939-20.049-35.605-20.049-20.611 0-38.328 15.374-41.209 35.76a5.002 5.002 0 0 1-7.125 3.802c-5.087-2.457-10.549-3.702-16.236-3.702-9.362 0-18.32 3.48-25.224 9.798a4.982 4.982 0 0 1-3.376 1.314z"/><path style="fill:#333" d="M351.429 409.972a4.998 4.998 0 0 1-4.446-2.706c-4.797-9.283-4.486-21.582-4.47-22.101.083-2.761 2.406-4.951 5.148-4.847a5 5 0 0 1 4.848 5.141c-.003.102-.235 10.264 3.358 17.217a5 5 0 0 1-4.438 7.296zM280.961 407.902a5 5 0 0 1-4.71-6.678c1.918-5.39.759-10.62.747-10.672-.613-2.681 1.05-5.368 3.726-5.998 2.68-.626 5.355 1.006 6.001 3.678.197.816 1.843 8.208-1.053 16.344a5.003 5.003 0 0 1-4.711 3.326zM310.123 406.833a5.001 5.001 0 0 1-4.498-2.809c-2.371-4.861-7.214-7.252-7.262-7.275a5 5 0 0 1 4.269-9.043c.819.387 8.116 4.007 11.982 11.934a5 5 0 0 1-4.491 7.193z"/><path style="fill:#fff" d="M213.65 382.61a5 5 0 0 1-5-5v-45a5 5 0 0 1 10 0v45a5 5 0 0 1-5 5zM231.65 382.61a5 5 0 0 1-5-5v-45a5 5 0 0 1 10 0v45a5 5 0 0 1-5 5z"/><path style="fill:#333" d="M365.154 444.61a5 5 0 0 1-5-5c0-18.471 15.027-33.499 33.499-33.499a5 5 0 0 1 0 10c-12.957 0-23.499 10.542-23.499 23.499a5 5 0 0 1-5 5zM389.506 324.613c-.33 0-.65-.04-.98-.1a4.36 4.36 0 0 1-.93-.29c-.3-.12-.59-.28-.87-.46-.27-.18-.52-.39-.76-.62a5.012 5.012 0 0 1-1.46-3.53c0-.33.03-.66.1-.98a4.986 4.986 0 0 1 .74-1.8c.18-.27.39-.53.62-.76.24-.23.49-.44.76-.62.28-.18.57-.33.87-.46.3-.12.61-.22.93-.28.65-.13 1.31-.13 1.96 0 .32.06.63.16.93.28.3.13.59.28.87.46.27.18.53.39.76.62a5.02 5.02 0 0 1 1.08 1.63c.12.3.22.61.28.93.07.32.1.65.1.98 0 1.31-.53 2.6-1.46 3.53a5.02 5.02 0 0 1-1.63 1.08c-.3.13-.61.23-.93.29-.33.06-.65.1-.98.1zM449.506 430.613c-1.32 0-2.61-.54-3.54-1.47a5.03 5.03 0 0 1-1.46-3.53c0-1.32.53-2.61 1.46-3.54.94-.93 2.22-1.46 3.54-1.46s2.61.53 3.54 1.46c.93.93 1.46 2.22 1.46 3.54 0 1.31-.53 2.6-1.46 3.53-.93.93-2.22 1.47-3.54 1.47zM89.506 332.613c-1.32 0-2.61-.54-3.54-1.47s-1.46-2.22-1.46-3.53c0-.33.03-.66.1-.98.06-.32.16-.63.28-.94.13-.3.28-.59.46-.86.19-.27.39-.53.62-.76a5.047 5.047 0 0 1 5.45-1.08c.3.13.59.28.87.46.27.18.52.39.76.62.23.23.43.49.62.76.18.27.33.56.46.86.12.31.22.62.28.94.07.32.1.65.1.98 0 1.31-.53 2.6-1.46 3.53-.24.23-.49.44-.76.62-.28.18-.57.34-.87.46-.3.13-.61.23-.93.29-.32.06-.65.1-.98.1zM27.506 316.613c-.33 0-.65-.04-.98-.1a4.36 4.36 0 0 1-.93-.29 5.02 5.02 0 0 1-1.63-1.08 5.03 5.03 0 0 1-1.46-3.53c0-.33.03-.66.1-.98a4.986 4.986 0 0 1 .74-1.8c.18-.27.39-.53.62-.76s.49-.44.76-.62c.28-.18.57-.33.87-.46.3-.12.61-.22.93-.28.65-.14 1.31-.14 1.96 0a4.986 4.986 0 0 1 1.8.74c.27.18.53.39.76.62a5.02 5.02 0 0 1 1.08 1.63c.12.3.22.61.28.93.07.32.1.65.1.98 0 1.31-.53 2.6-1.46 3.53a5.02 5.02 0 0 1-1.63 1.08c-.3.13-.61.23-.93.29-.32.06-.65.1-.98.1zM214.197 415.369a5.002 5.002 0 0 1-4.893-3.996c-.952-4.635-4.921-8.09-9.654-8.401a5.002 5.002 0 0 1-4.661-5.318 5.005 5.005 0 0 1 5.318-4.661c9.211.606 16.939 7.337 18.793 16.369a5 5 0 0 1-4.903 6.007z"/><path style="fill:#333" d="M203.735 432.205a4.999 4.999 0 0 1-4.934-5.844 23.784 23.784 0 0 1 19.869-19.52 23.778 23.778 0 0 1 23.892 11.05 5 5 0 1 1-8.514 5.246 13.798 13.798 0 0 0-13.862-6.412 13.798 13.798 0 0 0-11.528 11.322 5.004 5.004 0 0 1-4.923 4.158zM266.873 111.058h-17.657a5 5 0 0 1 0-10h17.657a5 5 0 0 1 0 10zM234.549 111.058h-56.137a5 5 0 0 1 0-10h56.137a5 5 0 0 1 0 10z"/><circle style="fill:#61ccf2" cx="222.648" cy="140.634" r="19.646"/><circle style="fill:#61ccf2" cx="222.648" cy="202.557" r="19.646"/><path style="fill:#fff" d="M222.648 160.28c10.85 0 19.646-8.796 19.646-19.646 0-10.85-8.796-19.646-19.646-19.646M222.648 222.203c10.85 0 19.646-8.796 19.646-19.646 0-10.85-8.796-19.646-19.646-19.646"/><path style="fill:#333" d="M222.648 165.28c-13.59 0-24.646-11.056-24.646-24.646s11.056-24.646 24.646-24.646c4.678 0 9.232 1.318 13.17 3.811a5 5 0 0 1-5.349 8.449 14.586 14.586 0 0 0-7.82-2.26c-8.076 0-14.646 6.57-14.646 14.646s6.57 14.646 14.646 14.646 14.646-6.57 14.646-14.646a5 5 0 0 1 10 0c-.001 13.59-11.057 24.646-24.647 24.646zM222.648 227.204c-13.59 0-24.646-11.056-24.646-24.646s11.056-24.646 24.646-24.646a24.692 24.692 0 0 1 18.292 8.128 5 5 0 0 1-.358 7.062 5 5 0 0 1-7.062-.358 14.676 14.676 0 0 0-10.872-4.832c-8.076 0-14.646 6.57-14.646 14.646s6.57 14.646 14.646 14.646 14.646-6.57 14.646-14.646a5 5 0 0 1 10 0c0 13.589-11.056 24.646-24.646 24.646z"/><path style="fill:#fff" d="M251.655 309.386a5 5 0 0 1-5-5V163.988a5 5 0 0 1 10 0v140.398a5 5 0 0 1-5 5zM251.655 147.987a5 5 0 0 1-5-5v-13a5 5 0 0 1 10 0v13a5 5 0 0 1-5 5z"/></svg>

